<svg width="101" height="33" viewBox="0 0 101 33" fill="none" xmlns="http://www.w3.org/2000/svg">
<path d="M9.71905 17.1931C7.71195 19.7421 3.73886 19.8094 1.49629 17.5257C-0.634157 15.3803 -0.372524 11.9604 1.54114 9.8337C2.46807 7.01554 6.54581 7.36687 8.69494 9.08618C11.1842 11.0933 11.7486 14.6104 9.71905 17.1931Z" fill="#FFDCDC"/>
<path d="M13.5055 9.48248C11.532 9.48248 10.721 8.2528 10.5528 6.75775C9.91737 4.88895 10.7696 2.70244 12.8589 2.15675C13.3532 2.03218 13.8683 2.01306 14.3705 2.10061C14.8727 2.18816 15.3509 2.38044 15.7739 2.66493C16.197 2.94942 16.5554 3.31976 16.8259 3.75187C17.0964 4.18398 17.2729 4.66819 17.344 5.173C17.4098 5.71495 17.3595 6.26469 17.1964 6.78568C17.0332 7.30666 16.7611 7.78695 16.398 8.19461C16.0349 8.60227 15.5891 8.92795 15.0904 9.15001C14.5917 9.37206 14.0514 9.4854 13.5055 9.48248Z" fill="#FFDCDC"/>
<path d="M19.7286 31.1232L19.8519 30.8914C19.0259 30.3644 18.2036 29.8299 17.3814 29.2992C16.6764 28.7488 16.0346 28.1221 15.4677 27.4304C14.6977 26.5819 13.9241 25.7298 13.1504 24.8851C13.0831 24.8141 12.9971 24.7318 12.9897 24.6646C12.2241 23.8586 11.5932 22.9348 11.1208 21.9286C10.6261 21.1492 10.1793 20.3403 9.78278 19.5066C9.74167 19.4169 9.83511 19.26 9.86501 19.1329C10.0313 19.0951 10.1911 19.0334 10.3397 18.9497C10.8287 18.5216 11.1853 17.9627 11.3675 17.3388C12.1562 15.3205 12.8327 13.276 12.7579 11.0671C12.7382 10.9488 12.7043 10.8334 12.657 10.7232C12.5517 10.7791 12.4548 10.8495 12.3692 10.9325C11.8459 11.624 11.3152 12.3117 10.8218 13.0256C10.0885 14.0381 9.57891 15.1949 9.32679 16.4194C9.21466 16.9987 9.19971 17.593 9.14365 18.1798C9.11018 18.1322 9.0802 18.0822 9.05394 18.0303C8.73998 17.2828 8.43724 16.5352 8.11206 15.7877C8.06718 15.7004 8.05382 15.6003 8.07425 15.5042C8.09469 15.4082 8.14765 15.3222 8.22419 15.2607C8.6006 14.908 8.94229 14.52 9.24456 14.102C10.0565 12.7658 10.646 11.3066 10.99 9.78135C11.114 9.23408 11.1953 8.67799 11.233 8.11811C11.233 7.94618 11.1134 7.76304 11.0498 7.58363C10.8727 7.64949 10.7082 7.7456 10.5639 7.86769C10.1603 8.35358 9.7753 8.85816 9.40902 9.36274C8.66248 10.3041 8.134 11.3994 7.86164 12.5696C7.76073 13.1377 7.71588 13.7171 7.64112 14.2927H7.60375L6.91976 11.5866L7.11412 11.8744C7.19088 11.7195 7.27961 11.5708 7.37949 11.4296C7.82427 10.8727 8.39612 10.3831 8.70261 9.75892C9.15349 8.79287 9.52839 7.79315 9.82389 6.76883C9.93848 6.28999 9.99866 5.79975 10.0033 5.30742C10.0033 5.18408 9.91733 5.057 9.86874 4.93366C9.76783 4.97477 9.6258 4.98972 9.57347 5.06447C8.84464 6.06989 8.07842 7.05289 7.42434 8.09942C7.13862 8.65956 6.90587 9.24517 6.72914 9.84863C6.61914 9.48953 6.63899 9.10318 6.78521 8.75724C7.39805 7.20666 7.80883 5.58367 8.00741 3.92824C8.12033 2.76188 8.17149 1.59037 8.16065 0.418613C8.13965 0.273465 8.0968 0.13233 8.03357 0C7.89902 0.0672772 7.71961 0.104653 7.62991 0.213044C6.86784 1.09526 6.31691 2.1396 6.019 3.26668C5.61533 5.01589 5.79474 6.76509 6.12739 8.49935C6.28063 9.29546 6.44509 10.0878 6.6058 10.8914C5.80969 10.5887 5.11075 10.2822 4.39313 10.0579C3.14268 9.72072 1.83062 9.68104 0.562073 9.94207C0.402715 9.99572 0.25451 10.0781 0.124771 10.185C0.203777 10.3448 0.305777 10.4921 0.427518 10.6223C1.29033 11.3235 2.36566 11.7109 3.47742 11.7212C4.36017 11.7447 5.24162 11.6389 6.09375 11.4072C6.55721 11.2764 6.61702 11.3287 6.72167 11.781C6.84875 12.3304 6.97583 12.8798 7.11786 13.4255C7.21877 13.8292 7.34211 14.2329 7.46546 14.6851C7.35706 14.6253 7.29726 14.5991 7.2412 14.5618C6.39071 13.9552 5.34419 13.6886 4.30717 13.8142C3.22326 13.9899 2.15804 14.2852 1.08534 14.5356C0.91301 14.5741 0.745159 14.6305 0.584498 14.7038C0.530384 14.7213 0.483211 14.7555 0.449753 14.8015C0.416296 14.8475 0.398273 14.9029 0.398273 14.9598C0.398273 15.0167 0.416296 15.0721 0.449753 15.1181C0.483211 15.1641 0.530384 15.1983 0.584498 15.2158C1.11615 15.485 1.67172 15.7039 2.244 15.8699C2.93486 15.9918 3.63267 16.0705 4.33333 16.1054C5.48625 16.2165 6.64787 16.0165 7.69719 15.5261L8.96798 18.5535C7.5767 18.0275 6.06667 17.8981 4.60618 18.1798C3.48489 18.4227 2.36361 18.8152 1.27222 19.159C1.13393 19.2039 1.02554 19.3459 0.898458 19.4394C1.01432 19.5627 1.10776 19.7458 1.24979 19.8131C1.93596 20.1196 2.64597 20.3696 3.37276 20.5606C4.06663 20.6656 4.76785 20.7143 5.46957 20.7064C6.69517 20.7127 7.90463 20.427 8.99788 19.8729C9.14665 19.7984 9.29138 19.7161 9.43144 19.6262L11.9095 23.8161C11.5357 23.6703 11.0984 23.4797 10.6574 23.3452C8.78857 22.7696 6.84127 22.7696 4.90519 22.9714C4.19504 23.0387 3.49237 23.1919 2.78969 23.319C2.48695 23.3751 2.41593 23.5283 2.60655 23.7152C3.20944 24.3571 3.93186 24.8751 4.73326 25.2401C6.08503 25.7899 7.53112 26.0705 8.9904 26.0662C10.2331 26.1389 11.4662 25.81 12.5075 25.128C12.5858 25.0955 12.671 25.0833 12.7553 25.0925C12.8395 25.1016 12.9202 25.1318 12.9897 25.1803C13.8007 26.0736 14.5819 26.9931 15.4116 27.9499L14.7538 27.7331C13.9118 27.4311 13.0306 27.2523 12.1375 27.2024C10.4538 27.1662 8.78299 27.5032 7.24494 28.1891C6.82258 28.3611 6.38155 28.4956 5.95546 28.6526C5.85695 28.6962 5.76198 28.7475 5.6714 28.8058C5.74615 28.9142 5.79848 29.0824 5.89566 29.1198C6.69177 29.4039 7.47667 29.7963 8.29894 29.8972C10.0818 30.1177 11.8833 30.3569 13.6886 30.0131C14.6118 29.8412 15.5387 29.6842 16.2862 29.0413C16.343 28.9993 16.403 28.9618 16.4656 28.9292C16.6003 29.0823 16.7479 29.2236 16.9067 29.3515C17.7215 29.9047 18.5363 30.4728 19.366 30.9849L19.6875 31.183C19.707 31.1678 19.7214 31.1469 19.7286 31.1232ZM9.63701 6.04747C9.26325 7.76677 8.88949 9.50477 7.49909 10.7756C8.04082 9.12831 8.75624 7.54336 9.63328 6.04747H9.63701ZM9.2184 5.92039C8.51946 7.52757 7.72335 9.3291 6.97583 11.1082C6.95714 8.97029 8.05226 7.322 9.21466 5.92039H9.2184ZM1.25353 10.1588C2.64982 9.96944 4.07132 10.1646 5.36491 10.7232L1.25353 10.2523V10.1588ZM0.793805 10.484L5.83585 11.097C4.63981 11.8146 1.59739 11.4035 0.793805 10.484ZM6.31053 7.89012C5.6415 5.27378 6.31053 1.8875 7.77568 0.538217C6.83006 2.88918 6.68429 5.39339 6.31053 7.89012ZM7.80558 1.27079C8.14196 2.18277 7.39818 6.73519 6.63944 8.14427C6.84501 5.83816 6.99452 3.52084 7.7981 1.27079H7.80558ZM6.38902 14.4459C6.68056 14.5805 6.94966 14.7561 7.22999 14.9131L7.19261 15.0439C5.27798 14.7861 3.34484 14.6923 1.41425 14.7636C3.05133 14.3113 4.67719 13.6573 6.38902 14.4459ZM1.26474 15.1934C1.88519 14.943 6.25073 15.0551 7.33464 15.3504C6.15729 16.0718 2.1842 15.9409 1.26474 15.1897V15.1934ZM8.22419 14.8197C8.93766 12.7067 9.84346 10.6636 10.9302 8.71613C10.4256 10.9101 9.88369 13.1041 8.22419 14.8047V14.8197ZM10.8405 7.98356L8.03357 14.0759C7.94387 11.5866 9.45387 9.81499 10.8405 7.9686V7.98356ZM1.28343 19.5702C3.60823 18.3517 7.31595 17.9144 9.02778 19.0506C8.90278 19.0495 8.77796 19.0407 8.65402 19.0245C7.34959 18.7853 6.06011 18.9759 4.77437 19.1702C3.81006 19.316 2.84576 19.458 1.88145 19.5889C1.68518 19.5914 1.48901 19.5789 1.29465 19.5515L1.28343 19.5702ZM2.22158 19.8094C4.52769 19.5291 6.80763 18.8937 9.18102 19.3235C8.1756 20.299 4.43051 20.9307 2.22158 19.8094ZM12.4627 11.8296C12.4739 11.9464 12.4739 12.0641 12.4627 12.1809C12.2608 13.1788 12.0889 14.1917 11.8273 15.171C11.5595 16.0808 11.2298 16.9712 10.8405 17.8359C10.6308 18.1861 10.3799 18.5098 10.093 18.8002C10.0145 18.9011 9.9435 19.0058 9.86874 19.1104C9.84258 18.9609 9.76035 18.7928 9.8052 18.6694C10.4032 17.0273 11.01 15.389 11.6254 13.7544C11.8646 13.1078 12.1151 12.465 12.3729 11.8184L12.4627 11.8296ZM11.8422 12.2594C11.076 14.2702 10.3135 16.2848 9.52488 18.3554C9.34548 15.9223 10.3771 14.0086 11.8422 12.2594ZM11.6217 24.1002L3.7839 23.547C5.264 22.9901 9.82016 22.9378 11.6217 24.1002ZM10.5004 25.5952C8.31324 25.9623 6.06609 25.5915 4.11281 24.5412C3.81062 24.3467 3.52665 24.1253 3.26437 23.8797L3.30549 23.7974C6.31053 24.0267 9.32056 24.2584 12.3356 24.4926C12.3991 24.4926 12.4552 24.5898 12.5524 24.6758C11.9747 25.1737 11.264 25.492 10.5079 25.5915L10.5004 25.5952ZM15.677 28.4059C12.9261 28.5928 10.1715 28.4844 7.34211 28.4807C10.1528 27.251 12.9074 27.109 15.677 28.4059ZM15.4714 29.1945C14.148 29.6833 12.7391 29.8982 11.3302 29.8262C10.7321 29.7851 10.1379 29.7216 9.53983 29.7178C8.47791 29.679 7.43612 29.4166 6.48246 28.9479C9.6856 28.6302 12.9 29.0151 16.1031 28.6675C16.1031 28.7087 16.1218 28.746 16.1293 28.7834C15.9268 28.9498 15.7061 29.0928 15.4714 29.2095V29.1945Z" fill="#AE7C78"/>
<path d="M14.7687 7.96105C14.466 8.72726 13.8866 9.03748 13.2363 8.77959C12.9281 8.67159 12.6745 8.44716 12.5299 8.15441C12.3853 7.86165 12.3611 7.52389 12.4626 7.21352C12.6981 6.60055 13.5839 6.15952 14.1744 6.38377C14.4526 6.52488 14.6679 6.76505 14.7779 7.05697C14.8879 7.3489 14.8846 7.67143 14.7687 7.96105ZM14.4772 7.84892C14.5551 7.62951 14.5519 7.38947 14.4683 7.17218C14.3847 6.95489 14.2261 6.77467 14.0212 6.66409C13.7642 6.60641 13.4953 6.63655 13.2575 6.7497C13.0196 6.86286 12.8266 7.05249 12.7093 7.28828C12.6661 7.40714 12.6473 7.53351 12.6542 7.6598C12.6611 7.78608 12.6934 7.90967 12.7493 8.02314C12.8052 8.13661 12.8834 8.23761 12.9793 8.32007C13.0752 8.40254 13.1867 8.46476 13.3073 8.503C13.8007 8.69736 14.2454 8.4432 14.4772 7.84892Z" fill="#AE7C78"/>
<path d="M4.22843 7.10146C4.33185 7.13184 4.42821 7.18243 4.51193 7.25032C4.59566 7.3182 4.66508 7.40202 4.71618 7.49693C4.76729 7.59183 4.79905 7.69593 4.80964 7.8032C4.82022 7.91046 4.80942 8.01876 4.77786 8.12183C4.73175 8.24821 4.66092 8.36415 4.56951 8.46286C4.4781 8.56158 4.36794 8.64109 4.24546 8.69676C4.12298 8.75243 3.99064 8.78315 3.85616 8.78711C3.72168 8.79107 3.58776 8.76821 3.46222 8.71985C3.27196 8.62857 3.12572 8.4655 3.05564 8.26646C2.98555 8.06742 2.99736 7.8487 3.08846 7.65836C3.12167 7.54355 3.17856 7.43697 3.25546 7.34547C3.33236 7.25398 3.42757 7.17961 3.53496 7.12715C3.64235 7.07468 3.75954 7.04529 3.87897 7.04087C3.99841 7.03645 4.11745 7.05708 4.22843 7.10146ZM4.1163 7.36309C4.03958 7.33127 3.95707 7.31577 3.87403 7.3176C3.791 7.31942 3.70925 7.33852 3.634 7.37369C3.55875 7.40885 3.49165 7.4593 3.43698 7.52183C3.38231 7.58435 3.34126 7.65759 3.31645 7.73685C3.25555 7.86918 3.24674 8.01958 3.29176 8.15812C3.33678 8.29665 3.43234 8.41314 3.5594 8.48438C3.74375 8.54511 3.94416 8.53469 4.12122 8.45515C4.29828 8.37561 4.43918 8.23271 4.51623 8.05455C4.53416 7.98362 4.53794 7.90986 4.52736 7.83747C4.51678 7.76508 4.49204 7.69549 4.45455 7.63266C4.41707 7.56984 4.36757 7.51502 4.30889 7.47133C4.25021 7.42764 4.1835 7.39594 4.11256 7.37804L4.1163 7.36309Z" fill="#AE7C78"/>
<path d="M11.9053 5.0158C12.0922 4.58597 12.3763 4.39909 12.6528 4.52243C12.8178 4.60949 12.9461 4.75268 13.0146 4.9261C13.0832 5.09953 13.0874 5.29176 13.0266 5.46805C12.9421 5.60937 12.8077 5.71388 12.65 5.76094C12.4922 5.80799 12.3225 5.79417 12.1744 5.72221C12.1047 5.70093 12.0407 5.66399 11.9874 5.61419C11.9341 5.5644 11.8929 5.50307 11.8669 5.4349C11.8409 5.36674 11.8309 5.29354 11.8375 5.2209C11.8442 5.14826 11.8674 5.0781 11.9053 5.0158Z" fill="#AE7C78"/>
<path d="M3.76133 5.26994C3.83092 5.29806 3.89391 5.34033 3.9463 5.39407C3.9987 5.44781 4.03936 5.51184 4.06571 5.58212C4.09207 5.65239 4.10354 5.72738 4.09939 5.80232C4.09525 5.87726 4.07559 5.95052 4.04165 6.01746C3.98001 6.15618 3.87074 6.26825 3.73362 6.33338C3.59651 6.39851 3.4406 6.4124 3.29413 6.37253C3.04371 6.27162 2.96148 5.96887 3.0923 5.6437C3.22312 5.31853 3.48849 5.15781 3.76133 5.26994Z" fill="#AE7C78"/>
<path d="M1.3992 6.59317C1.53002 6.2194 1.74306 6.2194 1.90004 6.32406C2.05702 6.42871 2.07945 6.60438 2.16915 6.75015C2.00121 6.84548 1.81547 6.90527 1.62346 6.92581C1.52254 6.9146 1.44779 6.66792 1.3992 6.59317Z" fill="#AE7C78"/>
<path d="M14.1147 5.05705C14.0437 4.80289 13.9391 4.61975 13.9877 4.55247C14.122 4.40478 14.2783 4.27871 14.4511 4.17871C14.528 4.3626 14.5711 4.55886 14.5782 4.75804C14.5782 4.85896 14.3465 4.91502 14.1147 5.05705Z" fill="#AE7C78"/>
<path d="M20.2256 16.4679C23.283 16.8753 24.1688 18.3853 24.1688 19.9514C24.1688 22.1491 22.4271 23.689 19.5304 23.689C18.9548 23.689 17.7924 23.6292 16.2077 23.6292C15.3032 23.6292 14.3389 23.6516 13.8119 23.689V23.3152C15.1238 23.2592 15.3779 23.0611 15.3779 21.6557V12.065C15.3779 10.6597 15.1238 10.4616 13.8119 10.4055V10.0317C14.3501 10.0691 15.3069 10.0878 16.1703 10.0878C17.3888 10.0878 18.6222 10.0504 19.0856 10.0504C21.7917 10.0355 23.1746 11.2913 23.1746 13.0816C23.1746 14.4496 22.4009 15.7802 20.2406 16.4455L20.2256 16.4679ZM17.172 12.065V16.4455H18.4727C20.7451 16.4455 21.3058 14.9504 21.3058 13.2797C21.3058 11.3848 20.5321 10.4055 18.596 10.4055C17.4261 10.4055 17.172 10.7344 17.172 12.065ZM22.2365 19.8654C22.2365 17.9032 21.246 16.7632 18.7941 16.7632H17.172V21.6483C17.172 22.9975 17.4261 23.2517 18.6222 23.2517C21.1525 23.2517 22.2365 22.0519 22.2365 19.8654Z" fill="#AE7C78"/>
<path d="M34.7164 18.7329C34.7164 22.4406 32.784 23.9655 30.3322 23.9655C27.8803 23.9655 25.9442 22.4256 25.9442 18.7329C25.9442 15.0401 27.8765 13.4778 30.3322 13.4778C32.7878 13.4778 34.7164 15.0177 34.7164 18.7329ZM27.8205 18.7329C27.8205 22.1864 28.867 23.5918 30.3322 23.5918C31.7973 23.5918 32.8401 22.1976 32.8401 18.7329C32.8401 15.2681 31.801 13.874 30.3322 13.874C28.8633 13.874 27.8205 15.2718 27.8205 18.7329Z" fill="#AE7C78"/>
<path d="M42.1505 13.762V14.1357H39.2912V21.611C39.2912 22.8257 39.7546 23.2518 40.5283 23.2518C41.302 23.2518 41.8664 22.6949 42.2738 21.1849L42.6476 21.2821C42.3822 22.7771 41.7019 23.9507 40.1396 23.9507C39.2501 23.9507 38.7305 23.7339 38.3082 23.3078C37.7438 22.7322 37.5607 21.9772 37.5607 20.6018V14.1469H35.6919V13.7732H37.5607V10.8205C38.1494 10.8205 38.7346 10.7285 39.2949 10.5476V13.7732L42.1505 13.762Z" fill="#AE7C78"/>
<path d="M49.6146 14.2029C50.2275 14.8234 50.3845 15.541 50.3845 16.909V22.2799C50.3845 22.9041 50.5378 23.1956 50.9788 23.1956C51.3086 23.1779 51.6196 23.0364 51.8497 22.7994L52.0664 23.1321C51.5877 23.5804 50.9581 23.8325 50.3023 23.8385C48.953 23.8385 48.6428 23.0274 48.6428 22.1229C48.347 22.6492 47.9151 23.0862 47.3923 23.388C46.8694 23.6899 46.275 23.8455 45.6714 23.8385C44.3782 23.8385 43.2158 23.1882 43.2158 21.6782C43.2158 20.1682 44.3968 19.4692 46.3292 18.6582C47.6224 18.1237 48.6428 17.791 48.6428 17.0173V15.8101C48.6428 14.188 47.8504 13.8665 46.8487 13.8665C46.1872 13.8665 45.3761 13.9974 44.9351 14.5543C45.1974 14.6194 45.4298 14.7718 45.5941 14.9864C45.7585 15.201 45.845 15.4651 45.8396 15.7353C45.8453 15.8808 45.8195 16.0258 45.7641 16.1604C45.7087 16.295 45.625 16.416 45.5186 16.5154C45.4122 16.6147 45.2856 16.6899 45.1475 16.7359C45.0094 16.7819 44.863 16.7976 44.7183 16.7819C44.0567 16.7819 43.6717 16.281 43.6717 15.5821C43.6717 15.0177 44.0455 14.5729 44.5763 14.2067C45.3911 13.7093 46.3316 13.4563 47.286 13.4778C48.3587 13.4778 49.1698 13.7619 49.6146 14.2029ZM48.6428 17.7948C48.4335 18.1087 48.0074 18.3031 46.7927 18.9161C45.9442 19.3235 44.9239 19.8804 44.9239 21.3717C44.9239 22.5303 45.5817 23.0686 46.4712 23.0686C47.2449 23.0686 47.9962 22.6612 48.6503 21.6071L48.6428 17.7948Z" fill="#AE7C78"/>
<path d="M61.1858 14.2029C61.6679 14.7299 61.8548 15.4176 61.8548 16.7407V21.9024C61.8548 22.9788 62.2622 23.289 63.3274 23.289V23.6964C62.8864 23.6964 61.8548 23.6179 61.0064 23.6179C60.1579 23.6179 59.2534 23.6777 58.846 23.6964V23.289C59.773 23.289 60.1206 22.9788 60.1206 21.9024V16.3184C60.1206 15.1186 59.9524 14.0758 58.5545 14.0758C56.9324 14.0758 55.8485 15.6232 55.8485 17.5966V21.9024C55.8485 22.9788 56.1961 23.289 57.1305 23.289V23.6964C56.7268 23.6964 55.8111 23.6179 54.9627 23.6179C54.1142 23.6179 53.0938 23.6777 52.6416 23.6964V23.289C53.7068 23.289 54.1105 22.9788 54.1105 21.9024V15.8549C54.1105 14.6962 53.7629 14.1468 52.6416 14.1468V13.7432C53.0453 13.7805 53.4527 13.7992 53.8376 13.7992C54.5178 13.8183 55.1966 13.7287 55.8485 13.5338V15.8101C56.5287 14.0721 57.8182 13.4778 59.1413 13.4778C60.1206 13.4778 60.7447 13.7432 61.1858 14.2029Z" fill="#AE7C78"/>
<path d="M67.387 21.9025C67.387 22.979 67.7907 23.2892 68.8559 23.2892V23.6966C68.4149 23.6966 67.4057 23.6181 66.5162 23.6181C65.6266 23.6181 64.6212 23.6779 64.1802 23.6966V23.2892C65.2454 23.2892 65.649 22.979 65.649 21.9025V15.8551C65.649 14.6964 65.3015 14.147 64.1802 14.147V13.7433C64.5838 13.7807 64.9912 13.7994 65.3762 13.7994C66.0563 13.8185 66.7351 13.7289 67.387 13.534V21.9025ZM67.6225 10.1477C67.6233 10.3926 67.5513 10.6321 67.4158 10.8361C67.2803 11.04 67.0874 11.1992 66.8614 11.2934C66.6354 11.3876 66.3865 11.4126 66.1463 11.3653C65.9061 11.318 65.6853 11.2004 65.5119 11.0276C65.3385 10.8547 65.2203 10.6343 65.1723 10.3942C65.1242 10.1541 65.1485 9.90517 65.242 9.67889C65.3356 9.45261 65.4941 9.25917 65.6977 9.12307C65.9012 8.98696 66.1405 8.91431 66.3854 8.91431C66.7119 8.91722 67.0244 9.04798 67.2556 9.27856C67.4869 9.50914 67.6186 9.82116 67.6225 10.1477Z" fill="#AE7C78"/>
<path d="M78.424 22.2799C78.865 22.8817 79.1939 23.2143 79.7695 23.2891V23.6965C79.478 23.6965 78.7902 23.618 78.2034 23.618C77.3924 23.618 76.4692 23.6778 76.0655 23.6965V23.2891C76.4393 23.2891 76.6598 23.1396 76.6598 22.9153C76.6515 22.8076 76.6111 22.7047 76.5439 22.6201L74.3275 19.3758C73.8566 18.718 73.5538 18.5573 72.8773 18.5274V21.8912C72.8773 22.9677 73.2249 23.2779 74.1481 23.2779V23.6965C73.7445 23.6965 72.8175 23.618 72.0065 23.618C71.1207 23.618 70.1115 23.6778 69.6705 23.6965V23.2891C70.7357 23.2891 71.1393 22.9789 71.1393 21.9024V10.8653C71.1393 9.70659 70.7917 9.16837 69.6705 9.16837V8.76097C70.0679 8.80093 70.4671 8.82089 70.8665 8.82077C71.5474 8.8402 72.2269 8.74675 72.8773 8.54419V18.1387C73.5109 18.0882 74.1027 17.803 74.5368 17.3388L75.9683 15.8438C76.4019 15.3915 76.5813 15.0439 76.5813 14.7785C76.5813 14.3076 75.9683 14.117 75.1573 14.117V13.7432C75.8301 13.7806 76.7794 13.818 77.3363 13.818C77.9792 13.818 78.6295 13.7806 79.0182 13.7432V14.117C78.3463 14.1935 77.7268 14.5173 77.2802 15.0252L74.933 17.4958L78.424 22.2799Z" fill="#AE7C78"/>
<path d="M86.8636 14.2029C87.4766 14.8233 87.6373 15.5409 87.6373 16.9089V22.2799C87.6373 22.904 87.7905 23.1956 88.2316 23.1956C88.5614 23.1779 88.8724 23.0364 89.1024 22.7994L89.3192 23.132C88.8405 23.5803 88.2109 23.8324 87.5551 23.8384C86.2058 23.8384 85.8918 23.0274 85.8918 22.1229C85.5945 22.652 85.1596 23.0908 84.6332 23.3928C84.1068 23.6948 83.5085 23.8488 82.9017 23.8384C81.6123 23.8384 80.4499 23.1881 80.4499 21.6781C80.4499 20.1681 81.6309 19.4692 83.5633 18.6581C84.8565 18.1236 85.8731 17.791 85.8731 17.0173V15.81C85.8731 14.1879 85.0808 13.8665 84.0828 13.8665C83.4213 13.8665 82.6102 13.9973 82.1692 14.5542C82.4315 14.6194 82.6639 14.7718 82.8282 14.9864C82.9926 15.201 83.0791 15.465 83.0737 15.7353C83.0793 15.8807 83.0536 16.0257 82.9982 16.1603C82.9428 16.2949 82.8591 16.416 82.7527 16.5153C82.6462 16.6146 82.5197 16.6898 82.3816 16.7358C82.2435 16.7818 82.0971 16.7975 81.9524 16.7818C81.2908 16.7818 80.9058 16.281 80.9058 15.582C80.9058 15.0177 81.2796 14.5729 81.8103 14.2066C82.624 13.7097 83.5632 13.4568 84.5164 13.4778C85.6115 13.4778 86.4226 13.7618 86.8636 14.2029ZM85.8918 17.7947C85.6863 18.1087 85.2602 18.303 84.0454 18.916C83.197 19.3234 82.1766 19.8803 82.1766 21.3716C82.1766 22.5303 82.8345 23.0685 83.7203 23.0685C84.494 23.0685 85.249 22.6611 85.8993 21.6071L85.8918 17.7947Z" fill="#AE7C78"/>
<path d="M32.6272 30.5737V31.8407H32.2908V30.8839H28.8746V27.2061H29.2259V30.5699H31.6629V27.2061H32.0142V30.5699L32.6272 30.5737Z" fill="#AE7C78"/>
<path d="M36.6301 29.9009C36.6301 30.5363 36.1816 30.8876 35.236 30.8876H33.64V27.2061H35.1912C36.0022 27.2061 36.4993 27.5312 36.4993 28.1442C36.5039 28.3426 36.4381 28.5363 36.3136 28.6909C36.1891 28.8454 36.0139 28.951 35.8191 28.9889C35.9329 28.9936 36.0446 29.0211 36.1475 29.0699C36.2504 29.1187 36.3424 29.1877 36.4181 29.2728C36.4938 29.3579 36.5516 29.4574 36.588 29.5653C36.6244 29.6732 36.6388 29.7873 36.6301 29.9009ZM34.0138 28.8842H35.1949C35.8228 28.8842 36.1742 28.645 36.1742 28.1853C36.1742 27.7256 35.8228 27.4939 35.1949 27.4939H34.0138V28.8842ZM36.29 29.9009C36.29 29.4038 35.9873 29.1758 35.2958 29.1758H34.0138V30.6148H35.251C35.9237 30.5961 36.29 30.3756 36.29 29.9009Z" fill="#AE7C78"/>
<path d="M41.0288 29.131H37.8668C37.8868 29.4391 37.9972 29.7343 38.1842 29.9799C38.3712 30.2255 38.6264 30.4105 38.918 30.5119C39.2096 30.6132 39.5245 30.6263 39.8235 30.5495C40.1225 30.4728 40.3922 30.3096 40.599 30.0804L40.8045 30.3121C40.6326 30.5088 40.4188 30.6646 40.1789 30.7681C39.939 30.8716 39.679 30.9201 39.4179 30.9101C39.1679 30.9227 38.9181 30.8832 38.6842 30.7941C38.4503 30.705 38.2375 30.5683 38.0594 30.3925C37.8812 30.2168 37.7414 30.0059 37.6491 29.7733C37.5567 29.5407 37.5138 29.2914 37.5229 29.0413C37.5072 28.801 37.541 28.56 37.6222 28.3333C37.7034 28.1065 37.8302 27.8989 37.9949 27.7231C38.1595 27.5473 38.3585 27.4072 38.5795 27.3115C38.8005 27.2157 39.0387 27.1663 39.2796 27.1663C39.5204 27.1663 39.7587 27.2157 39.9797 27.3115C40.2006 27.4072 40.3996 27.5473 40.5643 27.7231C40.7289 27.8989 40.8558 28.1065 40.937 28.3333C41.0181 28.56 41.0519 28.801 41.0363 29.0413C41.0363 29.06 41.0288 29.0937 41.0288 29.131ZM37.8742 28.8545H40.6924C40.6924 28.4807 40.5439 28.1223 40.2797 27.8581C40.0154 27.5938 39.657 27.4454 39.2833 27.4454C38.9096 27.4454 38.5512 27.5938 38.2869 27.8581C38.0227 28.1223 37.8742 28.4807 37.8742 28.8545Z" fill="#AE7C78"/>
<path d="M44.4791 27.5238H43.0401V30.8876H42.6888V27.5238H41.2535V27.2061H44.4791V27.5238Z" fill="#AE7C78"/>
<path d="M48.0785 29.699C48.0785 30.4802 47.5589 30.9063 46.6021 30.8988H45.2267V27.2061H45.6004V28.5329H46.6956C47.5926 28.5516 48.0785 28.9553 48.0785 29.699ZM47.7271 29.699C47.7271 29.101 47.3534 28.8282 46.6059 28.8132H45.6004V30.611H46.6059C47.3422 30.6484 47.7271 30.3045 47.7271 29.699ZM48.755 27.2061H49.1101V30.8839H48.755V27.2061Z" fill="#AE7C78"/>
<path d="M55.419 29.9009C55.419 30.5363 54.9667 30.8876 54.0249 30.8876H52.4326V27.2061H53.9837C54.7911 27.2061 55.2919 27.5312 55.2919 28.1442C55.2955 28.343 55.2289 28.5367 55.1038 28.6912C54.9787 28.8457 54.8031 28.9511 54.6079 28.9889C54.7217 28.9936 54.8334 29.0211 54.9363 29.0699C55.0392 29.1187 55.1313 29.1877 55.207 29.2728C55.2827 29.3579 55.3404 29.4574 55.3769 29.5653C55.4133 29.6732 55.4276 29.7873 55.419 29.9009ZM52.7765 28.888H53.9613C54.5892 28.888 54.9406 28.6488 54.9406 28.189C54.9406 27.7293 54.5892 27.4976 53.9613 27.4976H52.7765V28.888ZM55.0677 29.9009C55.0677 29.4038 54.7649 29.1758 54.0734 29.1758H52.7765V30.6148H54.0174C54.7014 30.5961 55.0677 30.3756 55.0677 29.9009Z" fill="#AE7C78"/>
<path d="M62.6661 25.9541V30.884H62.2923V26.2755H58.9546V30.884H58.5809V25.9541H62.6661Z" fill="#AE7C78"/>
<path d="M67.4466 29.131H64.2883C64.3084 29.4391 64.4188 29.7343 64.6058 29.9799C64.7928 30.2255 65.048 30.4105 65.3396 30.5119C65.6311 30.6132 65.9461 30.6263 66.2451 30.5495C66.5441 30.4728 66.8138 30.3096 67.0205 30.0804L67.2261 30.3121C67.0541 30.5088 66.8404 30.6646 66.6005 30.7681C66.3606 30.8716 66.1005 30.9201 65.8394 30.9101C65.5895 30.9227 65.3397 30.8832 65.1058 30.7941C64.8719 30.705 64.6591 30.5683 64.4809 30.3925C64.3027 30.2168 64.163 30.0059 64.0707 29.7733C63.9783 29.5407 63.9354 29.2914 63.9445 29.0413C63.9288 28.801 63.9626 28.56 64.0438 28.3333C64.125 28.1065 64.2518 27.8989 64.4165 27.7231C64.5811 27.5473 64.7801 27.4072 65.0011 27.3115C65.222 27.2157 65.4603 27.1663 65.7012 27.1663C65.942 27.1663 66.1803 27.2157 66.4012 27.3115C66.6222 27.4072 66.8212 27.5473 66.9859 27.7231C67.1505 27.8989 67.2774 28.1065 67.3585 28.3333C67.4397 28.56 67.4735 28.801 67.4578 29.0413C67.4541 29.06 67.4466 29.0937 67.4466 29.131ZM64.2883 28.8545H67.1065C67.1065 28.4807 66.958 28.1223 66.6938 27.8581C66.4295 27.5938 66.0711 27.4454 65.6974 27.4454C65.3237 27.4454 64.9653 27.5938 64.701 27.8581C64.4368 28.1223 64.2883 28.4807 64.2883 28.8545Z" fill="#AE7C78"/>
<path d="M70.8929 27.5238H69.4539V30.8876H69.1026V27.5238H67.6524V27.2061H70.878L70.8929 27.5238Z" fill="#AE7C78"/>
<path d="M74.6117 29.131H71.4496C71.4697 29.439 71.5801 29.7343 71.7671 29.9799C71.9541 30.2255 72.2093 30.4105 72.5009 30.5118C72.7924 30.6131 73.1074 30.6262 73.4064 30.5495C73.7054 30.4727 73.9751 30.3096 74.1818 30.0803L74.3837 30.3121C74.2119 30.509 73.9982 30.6649 73.7582 30.7684C73.5182 30.8719 73.2581 30.9203 72.997 30.9101C72.7471 30.9227 72.4972 30.8832 72.2633 30.7941C72.0295 30.705 71.8167 30.5682 71.6385 30.3925C71.4603 30.2167 71.3206 30.0059 71.2282 29.7733C71.1359 29.5407 71.0929 29.2914 71.102 29.0413C71.0867 28.801 71.1208 28.5602 71.2024 28.3337C71.2841 28.1072 71.4114 27.8999 71.5764 27.7246C71.7415 27.5494 71.9409 27.4099 72.1621 27.3149C72.3833 27.22 72.6217 27.1715 72.8625 27.1725C73.1035 27.1698 73.3425 27.2171 73.5644 27.3116C73.7862 27.406 73.986 27.5455 74.1511 27.7212C74.3163 27.8968 74.4431 28.1049 74.5237 28.3321C74.6042 28.5593 74.6367 28.8008 74.6191 29.0413C74.6191 29.06 74.6117 29.0936 74.6117 29.131ZM71.4571 28.8544H74.2715C74.2529 28.4937 74.0966 28.154 73.8347 27.9053C73.5728 27.6565 73.2255 27.5179 72.8643 27.5179C72.5032 27.5179 72.1558 27.6565 71.8939 27.9053C71.6321 28.154 71.4757 28.4937 71.4571 28.8544Z" fill="#AE7C78"/>
<path d="M79.4367 29.0451C79.4491 29.2897 79.4109 29.5342 79.3244 29.7633C79.238 29.9924 79.1052 30.2012 78.9343 30.3767C78.7635 30.5521 78.5582 30.6904 78.3314 30.7828C78.1047 30.8752 77.8613 30.9199 77.6164 30.9139C77.3116 30.9231 77.0103 30.8472 76.7462 30.6947C76.4821 30.5422 76.2657 30.3191 76.1214 30.0505V32.2557H75.7701V27.2062H76.1064V28.0733C76.2463 27.7988 76.4609 27.5694 76.7253 27.4114C76.9898 27.2533 77.2935 27.1732 77.6015 27.18C77.8471 27.1725 78.0915 27.2159 78.3196 27.3074C78.5476 27.3989 78.7542 27.5365 78.9266 27.7116C79.0989 27.8867 79.2331 28.0956 79.3209 28.3251C79.4087 28.5545 79.4481 28.7997 79.4367 29.0451ZM79.0816 29.0451C79.0706 28.752 78.9737 28.4687 78.8028 28.2303C78.632 27.9919 78.3949 27.8091 78.1209 27.7045C77.8469 27.5999 77.5482 27.5781 77.262 27.642C76.9758 27.7059 76.7147 27.8525 76.5112 28.0636C76.3076 28.2748 76.1707 28.5411 76.1174 28.8295C76.0641 29.1179 76.0968 29.4156 76.2115 29.6855C76.3261 29.9554 76.5176 30.1857 76.7621 30.3476C77.0066 30.5096 77.2933 30.596 77.5865 30.5962C77.7889 30.6007 77.99 30.5632 78.1771 30.4861C78.3643 30.409 78.5334 30.2939 78.6739 30.1482C78.8144 30.0025 78.9231 29.8292 78.9933 29.6393C79.0635 29.4495 79.0935 29.2472 79.0816 29.0451Z" fill="#AE7C78"/>
<path d="M84.0494 29.0749C84.0626 29.3185 84.0248 29.5621 83.9383 29.7901C83.8518 30.0182 83.7186 30.2257 83.5472 30.3992C83.3758 30.5727 83.17 30.7085 82.943 30.7977C82.716 30.887 82.4728 30.9278 82.2292 30.9176C81.007 30.9176 80.3304 29.9682 80.3304 28.518C80.3304 26.8473 80.9359 26.1222 82.1731 25.8269L83.8102 25.4158L83.8662 25.7484L82.3151 26.1222C81.1938 26.3838 80.6967 26.9594 80.6743 28.3648C80.792 28.0345 81.0121 27.7505 81.3026 27.5541C81.593 27.3578 81.9386 27.2594 82.289 27.2734C82.5259 27.2652 82.7619 27.3065 82.9819 27.3947C83.202 27.4829 83.4012 27.616 83.5668 27.7855C83.7325 27.9551 83.861 28.1573 83.9441 28.3793C84.0272 28.6013 84.063 28.8382 84.0494 29.0749ZM83.6756 29.0749C83.6856 28.8785 83.6555 28.6822 83.5872 28.4977C83.519 28.3133 83.4139 28.1447 83.2784 28.0022C83.143 27.8597 82.9799 27.7462 82.7992 27.6686C82.6185 27.5911 82.4239 27.5511 82.2273 27.5511C82.0306 27.5511 81.8361 27.5911 81.6554 27.6686C81.4747 27.7462 81.3116 27.8597 81.1761 28.0022C81.0407 28.1447 80.9356 28.3133 80.8673 28.4977C80.799 28.6822 80.769 28.8785 80.779 29.0749C80.769 29.2713 80.799 29.4677 80.8673 29.6521C80.9356 29.8365 81.0407 30.0051 81.1761 30.1476C81.3116 30.2901 81.4747 30.4036 81.6554 30.4812C81.8361 30.5587 82.0306 30.5987 82.2273 30.5987C82.4239 30.5987 82.6185 30.5587 82.7992 30.4812C82.9799 30.4036 83.143 30.2901 83.2784 30.1476C83.4139 30.0051 83.519 29.8365 83.5872 29.6521C83.6555 29.4677 83.6856 29.2713 83.6756 29.0749Z" fill="#AE7C78"/>
<path d="M88.0895 27.2061L86.202 31.3959C85.9067 32.0724 85.5405 32.2892 85.0546 32.2892C84.8975 32.2936 84.7411 32.2665 84.5947 32.2093C84.4483 32.1522 84.3149 32.0662 84.2024 31.9566L84.3781 31.6912C84.4646 31.7856 84.5706 31.8601 84.6886 31.9098C84.8067 31.9595 84.934 31.9831 85.062 31.979C85.3984 31.979 85.6451 31.8257 85.8731 31.3249L86.0675 30.8801L84.4154 27.2173H84.7892L86.2618 30.5064L87.7344 27.2173L88.0895 27.2061Z" fill="#AE7C78"/>
<path d="M92.6122 29.045C92.6252 29.2894 92.5874 29.5339 92.5014 29.763C92.4154 29.9921 92.283 30.201 92.1124 30.3764C91.9418 30.5519 91.7368 30.6903 91.5102 30.7827C91.2836 30.8752 91.0404 30.9199 90.7957 30.9138C90.4911 30.9218 90.1903 30.8454 89.9264 30.693C89.6626 30.5406 89.446 30.3182 89.3007 30.0505V32.2557H88.9568V27.2061H89.2969V28.0733C89.4368 27.7988 89.6513 27.5693 89.9158 27.4113C90.1803 27.2533 90.484 27.1731 90.792 27.18C91.0365 27.174 91.2796 27.2186 91.5061 27.3108C91.7326 27.403 91.9376 27.5409 92.1084 27.7159C92.2792 27.891 92.4121 28.0993 92.4988 28.328C92.5855 28.5567 92.6241 28.8008 92.6122 29.045ZM92.2609 29.045C92.2499 28.752 92.1529 28.4686 91.9821 28.2303C91.8113 27.9919 91.5741 27.809 91.3002 27.7044C91.0262 27.5998 90.7275 27.5781 90.4413 27.6419C90.1551 27.7058 89.894 27.8524 89.6904 28.0636C89.4869 28.2747 89.35 28.5411 89.2967 28.8294C89.2434 29.1178 89.2761 29.4155 89.3907 29.6854C89.5054 29.9554 89.6968 30.1856 89.9413 30.3476C90.1858 30.5095 90.4726 30.5959 90.7658 30.5962C90.9682 30.6006 91.1693 30.5631 91.3564 30.486C91.5436 30.4089 91.7127 30.2939 91.8532 30.1481C91.9936 30.0024 92.1024 29.8291 92.1726 29.6393C92.2427 29.4494 92.2728 29.2471 92.2609 29.045Z" fill="#AE7C78"/>
<path d="M96.2747 27.5238H94.1106V30.8876H93.7593V27.2061H96.2747V27.5238Z" fill="#AE7C78"/>
<path d="M99.9938 29.131H96.8317C96.8518 29.439 96.9622 29.7343 97.1492 29.9799C97.3362 30.2255 97.5914 30.4105 97.883 30.5118C98.1746 30.6131 98.4895 30.6262 98.7885 30.5495C99.0875 30.4727 99.3572 30.3096 99.5639 30.0803L99.7695 30.3121C99.5968 30.5089 99.3824 30.6647 99.1419 30.7681C98.9013 30.8716 98.6408 30.9201 98.3791 30.9101C98.1292 30.9227 97.8793 30.8832 97.6454 30.7941C97.4116 30.705 97.1988 30.5682 97.0206 30.3925C96.8424 30.2167 96.7027 30.0059 96.6103 29.7733C96.518 29.5407 96.475 29.2914 96.4841 29.0413C96.4687 28.8007 96.503 28.5595 96.5849 28.3328C96.6667 28.106 96.7943 27.8985 96.9598 27.7232C97.1253 27.5479 97.3251 27.4086 97.5468 27.3138C97.7684 27.2191 98.0072 27.171 98.2483 27.1725C98.4892 27.1697 98.7281 27.2171 98.9497 27.3116C99.1714 27.4061 99.371 27.5456 99.5358 27.7213C99.7006 27.8971 99.8271 28.1052 99.9073 28.3324C99.9874 28.5596 100.019 28.801 100.001 29.0413C100.001 29.06 99.9938 29.0936 99.9938 29.131ZM96.8392 28.8544H99.6536C99.635 28.4937 99.4787 28.154 99.2168 27.9053C98.9549 27.6565 98.6076 27.5179 98.2464 27.5179C97.8853 27.5179 97.5379 27.6565 97.276 27.9053C97.0142 28.154 96.8578 28.4937 96.8392 28.8544Z" fill="#AE7C78"/>
</svg>
